<svg width="43" height="40" viewBox="0 0 43 40" fill="none" xmlns="http://www.w3.org/2000/svg">
<path fill-rule="evenodd" clip-rule="evenodd" d="M7.37299 29.3305C7.84205 29.9084 8.00495 30.6511 7.82046 31.3635L7.5771 32.3109C7.3043 33.3663 6.32495 34.1052 5.19645 34.1052H2.72945L1.93263 37.1766C1.82272 37.6086 1.42235 37.8947 0.980761 37.8947C0.902256 37.8947 0.823752 37.8852 0.743285 37.8663C0.217305 37.7393 -0.100638 37.2259 0.0288939 36.7181L1.00627 32.9475C1.00824 32.9343 1.01216 32.921 1.01609 32.9078L1.99151 29.1391C2.09945 28.7166 2.49393 28.421 2.94337 28.421H5.43982C6.20131 28.421 6.90589 28.7526 7.37299 29.3305ZM5.19431 32.2105C5.42197 32.2105 5.61627 32.0627 5.67122 31.8543L5.91655 30.905C5.96758 30.7099 5.88122 30.5659 5.82823 30.4977C5.77328 30.4295 5.64964 30.3158 5.4416 30.3158H3.71057L3.21992 32.2105H5.19431Z" fill="#8990A5"/>
<path fill-rule="evenodd" clip-rule="evenodd" d="M12.4273 33.0465C12.6512 32.7281 13.0538 32.5602 13.4662 32.6606C13.9945 32.7899 14.3126 33.3148 14.181 33.83L13.1991 37.6897C13.0891 38.1297 12.6885 38.4211 12.2466 38.4211C12.168 38.4211 12.0895 38.4114 12.009 38.3921C11.9362 38.3738 11.8737 38.3383 11.8113 38.303C11.8012 38.2973 11.7912 38.2916 11.7812 38.286C11.5219 38.369 11.2489 38.4211 10.9642 38.4211H9.56587C8.7214 38.4211 7.94173 38.0467 7.4213 37.3905C6.90086 36.7383 6.72018 35.9007 6.92443 35.096L7.05405 34.5846C7.34667 33.4364 8.39343 32.6316 9.60122 32.6316H10.9995C11.518 32.6316 12.0031 32.7879 12.4273 33.0465ZM8.96888 36.2056C9.11421 36.387 9.3322 36.4913 9.5659 36.4913H10.9642C11.2686 36.4913 11.5318 36.2906 11.6044 36.0011L11.734 35.4877C11.793 35.2639 11.7419 35.0304 11.5966 34.849C11.4512 34.6676 11.2333 34.5634 10.9995 34.5634H9.60125C9.29685 34.5634 9.03369 34.7641 8.96102 35.0535L8.8314 35.5669C8.77249 35.7907 8.82355 36.0242 8.96888 36.2056Z" fill="#8990A5"/>
<path fill-rule="evenodd" clip-rule="evenodd" d="M30.0046 29.3305C30.4736 29.9084 30.6365 30.6511 30.4521 31.3635L30.2067 32.3109C29.9339 33.3663 28.9546 34.1052 27.8261 34.1052H25.3591L24.5642 37.1766C24.4543 37.6086 24.0539 37.8947 23.6124 37.8947C23.5338 37.8947 23.4553 37.8852 23.3749 37.8663C22.8489 37.7393 22.531 37.2259 22.6605 36.7181L23.6379 32.9475C23.6398 32.9343 23.6438 32.921 23.6477 32.9078L24.6231 29.1391C24.731 28.7166 25.1255 28.421 25.575 28.421H28.0714C28.8309 28.421 29.5355 28.7526 30.0046 29.3305ZM27.8277 32.2105C28.0534 32.2105 28.2496 32.0646 28.3026 31.8543L28.5479 30.905C28.599 30.7099 28.5126 30.5659 28.4596 30.4977C28.4047 30.4295 28.281 30.3158 28.073 30.3158H26.342L25.8513 32.2105H27.8277Z" fill="#8990A5"/>
<path fill-rule="evenodd" clip-rule="evenodd" d="M35.583 33.0465C35.8069 32.7281 36.2095 32.5602 36.6239 32.6606C37.1522 32.7899 37.4703 33.3148 37.3388 33.83L36.3568 37.6897C36.2468 38.1297 35.8462 38.4211 35.4043 38.4211C35.3258 38.4211 35.2472 38.4114 35.1667 38.3902C35.0939 38.3719 35.0314 38.3364 34.969 38.301C34.9589 38.2953 34.9489 38.2897 34.9389 38.284C34.6796 38.367 34.4067 38.4191 34.1219 38.4191H32.7236C31.8791 38.4191 31.0994 38.0428 30.579 37.3905C30.0586 36.7383 29.8779 35.9007 30.0821 35.096L30.2118 34.5846C30.5044 33.4364 31.5511 32.6316 32.7589 32.6316H34.1572C34.6737 32.6316 35.1588 32.7879 35.583 33.0465ZM32.1267 36.2056C32.272 36.387 32.49 36.4913 32.7237 36.4913H34.122C34.4264 36.4913 34.6896 36.2906 34.7622 36.0011L34.8919 35.4877C34.9508 35.2639 34.8997 35.0304 34.7544 34.849C34.6091 34.6676 34.3911 34.5634 34.1574 34.5634H32.7591C32.4547 34.5634 32.1915 34.7641 32.1188 35.0535L31.9892 35.5669C31.9303 35.7907 31.9814 36.0242 32.1267 36.2056Z" fill="#8990A5"/>
<path d="M20.3771 32.4598L18.5005 34.7357L17.0539 32.5447C16.7509 32.0907 16.1429 31.9703 15.6992 32.2703C15.2515 32.5723 15.1284 33.1842 15.4275 33.6382L17.1946 36.3148L15.49 38.3814C15.144 38.7998 15.2007 39.4236 15.6132 39.773C15.7969 39.925 16.0198 40 16.2407 40C16.5202 40 16.7978 39.8796 16.9913 39.6447L21.8784 33.7231C22.2245 33.3046 22.1678 32.6809 21.7553 32.3315C21.3389 31.988 20.7231 32.0394 20.3771 32.4598Z" fill="#8990A5"/>
<path d="M41.4069 28.4502C40.9077 28.3213 40.4121 28.632 40.2905 29.1398L38.4483 36.7182C38.3267 37.2259 38.6251 37.7393 39.1188 37.8663C39.1944 37.8852 39.2681 37.8947 39.3418 37.8947C39.7563 37.8947 40.1321 37.6086 40.2353 37.1767L42.0775 29.5983C42.201 29.0924 41.9025 28.5771 41.4069 28.4502Z" fill="#8990A5"/>
<path fill-rule="evenodd" clip-rule="evenodd" d="M32.9908 11.592L32.2879 14.4334C31.5964 17.225 29.1229 19.1729 26.2713 19.1729H22.5629L20.8436 26.1155C20.7391 26.543 20.3573 26.8421 19.9222 26.8421H15.1728C14.8802 26.8421 14.6029 26.706 14.4224 26.474C14.2419 26.242 14.1792 25.9371 14.2495 25.6515L14.9049 23.0075H10.4233C10.1422 23.0075 9.87241 22.8829 9.69383 22.6643C9.51525 22.4458 9.43926 22.1582 9.48865 21.8782L13.2882 0.788007C13.3718 0.331692 13.7651 0 14.2229 0H24.9756C26.3701 0 27.6923 0.607782 28.6061 1.67188C29.5199 2.73598 29.9303 4.14327 29.7327 5.53523L29.6966 5.78447C30.6484 5.865 31.5185 6.33474 32.1625 7.16684C33.0744 8.34598 33.3841 9.99868 32.9908 11.592ZM20.9009 17.9823C21.0054 17.5547 21.3873 17.2556 21.8223 17.2556V17.2576H26.2735C28.2493 17.2576 29.9648 15.9059 30.4435 13.9713L31.1464 11.1299C31.3972 10.1195 31.211 9.05538 30.6658 8.3479C30.4283 8.04113 30.0218 7.67493 29.4309 7.67109L29.2676 8.82339C28.7432 12.5372 25.5421 15.3383 21.8223 15.3383H18.7656L17.0463 22.2809L16.3909 24.9248H19.1797L20.9009 17.9823Z" fill="#8990A5"/>
</svg>
