<svg width="105" height="38" viewBox="0 0 105 38" fill="none" xmlns="http://www.w3.org/2000/svg">
<path d="M58.8181 -2H55.909L52.6363 22.3636H52.5453L48.9544 -2H33.0908L29.4999 22.3636H29.409L26.1363 -2H12.3635L20.7272 36.7273H37.3635L40.9544 11.6364H41.0453L44.6363 36.7273H61.2726L62.0908 32.8636C59.9544 30.5909 58.8181 27.5909 58.8181 23.7273V-2Z" fill="#8990A5"/>
<path d="M58.8181 -2V23.7273C58.8181 27.5455 59.9545 30.5909 62.0908 32.8636L69.6363 -2H58.8181V-2Z" fill="#8990A5"/>
<path d="M80.3181 -2V23.0909C80.3181 26.1364 78.8635 27.3182 77.2726 27.3182C75.6817 27.3182 74.2272 26.1364 74.2272 23.0909V-2H70.9544L63.2272 33.8182C66.3635 36.4091 71.0908 37.7727 77.2726 37.7727C88.9544 37.7727 95.6817 33.0909 95.6817 23.7727V-1.95455H80.3181V-2Z" fill="#8990A5"/>
<path d="M2.27261 -2H-0.00012207L8.22715 36.7273H10.4999L2.27261 -2Z" fill="#8990A5"/>
<path d="M14.4544 36.7273H16.7272L8.4999 -2H6.22717L14.4544 36.7273Z" fill="#8990A5"/>
<path d="M100.273 -0.13633C100.273 -0.409058 100.136 -0.499967 99.8635 -0.499967C99.6817 -0.499967 99.4544 -0.409058 99.4544 -0.181785C99.4544 0.0909424 99.6817 0.136397 99.9089 0.181852C100.273 0.272761 100.863 0.409124 100.863 0.909124C100.863 1.54549 100.318 1.77276 99.7726 1.77276C99.1817 1.77276 98.7726 1.54549 98.7726 0.909124H99.318C99.318 1.18185 99.4544 1.36367 99.7271 1.36367C99.9544 1.36367 100.227 1.31822 100.227 1.04549C100.227 0.727306 99.8635 0.727306 99.6362 0.681852C99.2726 0.590942 98.7726 0.454579 98.7726 -0.0454212C98.7726 -0.63633 99.318 -0.909058 99.8635 -0.909058C100.363 -0.909058 100.727 -0.63633 100.727 -0.13633H100.273Z" fill="#8990A5"/>
<path d="M102.909 1.68181H102.454L101.773 -0.500011V1.68181H101.227V-0.863647H102.136L102.682 0.999989L103.273 -0.863647H104.136V1.68181H103.636V-0.500011L102.909 1.68181Z" fill="#8990A5"/>
</svg>
