<svg width="42" height="42" viewBox="0 0 42 42" fill="none" xmlns="http://www.w3.org/2000/svg">
<path fill-rule="evenodd" clip-rule="evenodd" d="M21 0C9.40202 0 0 9.40202 0 21C0 32.598 9.40202 42 21 42C32.598 42 42 32.598 42 21C42 9.40202 32.598 0 21 0ZM10.0815 17.3931H14.8406V31.6921H10.0815V17.3931ZM15.154 12.9699C15.1231 11.5679 14.1205 10.5 12.4925 10.5C10.8644 10.5 9.80005 11.5679 9.80005 12.9699C9.80005 14.3428 10.8329 15.4414 12.4307 15.4414H12.4611C14.1205 15.4414 15.154 14.3428 15.154 12.9699ZM26.5239 17.0576C29.6556 17.0576 32.0034 19.1017 32.0034 23.4938L32.0032 31.6924H27.2443V24.0424C27.2443 22.1209 26.5556 20.8097 24.8328 20.8097C23.518 20.8097 22.7349 21.6936 22.391 22.5474C22.2651 22.8534 22.2342 23.2797 22.2342 23.707V31.6928H17.4746C17.4746 31.6928 17.5373 18.7355 17.4746 17.3938H22.2342V19.4191C22.8659 18.4455 23.9971 17.0576 26.5239 17.0576Z" fill="white"/>
</svg>
