<svg width="172" height="36" viewBox="0 0 172 36" fill="none" xmlns="http://www.w3.org/2000/svg">
<circle cx="16" cy="18" r="16" fill="#CC0000"/>
<g clip-path="url(#clip0_2198_1838)">
<path d="M15.5712 27.6L15.7856 23.4884C15.7887 23.4208 15.7766 23.3534 15.7502 23.291C15.7238 23.2287 15.6837 23.1731 15.633 23.1283C15.5823 23.0835 15.5221 23.0507 15.457 23.0322C15.3919 23.0137 15.3234 23.0101 15.2567 23.0215L11.1642 23.741L11.7169 22.2164C11.7393 22.1557 11.7422 22.0896 11.7251 22.0272C11.708 21.9648 11.6718 21.9094 11.6216 21.8686L7.13843 18.2382L8.14845 17.7666C8.21667 17.7343 8.27077 17.6783 8.30059 17.609C8.33042 17.5397 8.33392 17.4619 8.31044 17.3902L7.42428 14.665L10.0065 15.2129C10.0765 15.2275 10.1493 15.2174 10.2127 15.1844C10.2761 15.1514 10.3261 15.0975 10.3543 15.0319L10.8546 13.8551L12.8698 16.0181C12.9159 16.0667 12.9765 16.099 13.0425 16.1103C13.1086 16.1215 13.1765 16.1111 13.236 16.0805C13.2956 16.0499 13.3437 16.0008 13.373 15.9406C13.4023 15.8804 13.4113 15.8123 13.3987 15.7465L12.4268 10.7345L13.9847 11.6349C14.0213 11.6564 14.0618 11.6701 14.1039 11.6752C14.146 11.6803 14.1887 11.6767 14.2294 11.6647C14.27 11.6526 14.3077 11.6323 14.3402 11.6051C14.3727 11.5778 14.3993 11.5442 14.4182 11.5063L16 8.40001L17.5817 11.5063C17.6007 11.5442 17.6272 11.5778 17.6597 11.6051C17.6922 11.6323 17.7299 11.6526 17.7706 11.6647C17.8112 11.6767 17.8539 11.6803 17.896 11.6752C17.9381 11.6701 17.9787 11.6564 18.0153 11.6349L19.5732 10.7345L18.6013 15.7465C18.5886 15.8123 18.5976 15.8804 18.6269 15.9406C18.6563 16.0008 18.7043 16.0499 18.7639 16.0805C18.8235 16.1111 18.8914 16.1215 18.9574 16.1103C19.0234 16.099 19.084 16.0667 19.1301 16.0181L21.1454 13.8551L21.6456 15.0319C21.6738 15.0975 21.7238 15.1514 21.7872 15.1844C21.8506 15.2174 21.9235 15.2275 21.9934 15.2129L24.5756 14.665L23.6895 17.3902C23.666 17.4619 23.6695 17.5397 23.6993 17.609C23.7292 17.6783 23.7833 17.7343 23.8515 17.7666L24.8615 18.2382L20.3783 21.8686C20.3281 21.9094 20.2919 21.9648 20.2748 22.0272C20.2578 22.0896 20.2606 22.1557 20.283 22.2164L20.8357 23.741L16.7432 23.0215C16.6765 23.0101 16.608 23.0137 16.5429 23.0322C16.4778 23.0507 16.4177 23.0835 16.3669 23.1283C16.3162 23.1731 16.2761 23.2287 16.2497 23.291C16.2233 23.3534 16.2112 23.4208 16.2144 23.4884L16.4288 27.6H15.5712Z" fill="white"/>
</g>
<path d="M45.9649 10.368C46.2529 10.896 46.5809 11.552 46.9489 12.336C47.3329 13.104 47.7249 13.944 48.1249 14.856C48.5409 15.752 48.9489 16.672 49.3489 17.616C49.7489 18.56 50.1249 19.448 50.4769 20.28C50.8289 19.448 51.2049 18.56 51.6049 17.616C52.0049 16.672 52.4049 15.752 52.8049 14.856C53.2209 13.944 53.6129 13.104 53.9809 12.336C54.3649 11.552 54.7009 10.896 54.9889 10.368H58.3969C58.5569 11.472 58.7009 12.712 58.8289 14.088C58.9729 15.448 59.0929 16.872 59.1889 18.36C59.3009 19.832 59.3969 21.312 59.4769 22.8C59.5729 24.288 59.6529 25.688 59.7169 27H56.0689C56.0209 25.384 55.9569 23.624 55.8769 21.72C55.7969 19.816 55.6769 17.896 55.5169 15.96C55.2289 16.632 54.9089 17.376 54.5569 18.192C54.2049 19.008 53.8529 19.824 53.5009 20.64C53.1649 21.456 52.8369 22.24 52.5169 22.992C52.1969 23.728 51.9249 24.36 51.7009 24.888H49.0849C48.8609 24.36 48.5889 23.728 48.2689 22.992C47.9489 22.24 47.6129 21.456 47.2609 20.64C46.9249 19.824 46.5809 19.008 46.2289 18.192C45.8769 17.376 45.5569 16.632 45.2689 15.96C45.1089 17.896 44.9889 19.816 44.9089 21.72C44.8289 23.624 44.7649 25.384 44.7169 27H41.0689C41.1329 25.688 41.2049 24.288 41.2849 22.8C41.3809 21.312 41.4769 19.832 41.5729 18.36C41.6849 16.872 41.8049 15.448 41.9329 14.088C42.0769 12.712 42.2289 11.472 42.3889 10.368H45.9649ZM67.672 24.504C68.024 24.504 68.36 24.496 68.68 24.48C69 24.464 69.256 24.44 69.448 24.408V21.696C69.304 21.664 69.088 21.632 68.8 21.6C68.512 21.568 68.248 21.552 68.008 21.552C67.672 21.552 67.352 21.576 67.048 21.624C66.76 21.656 66.504 21.728 66.28 21.84C66.056 21.952 65.88 22.104 65.752 22.296C65.624 22.488 65.56 22.728 65.56 23.016C65.56 23.576 65.744 23.968 66.112 24.192C66.496 24.4 67.016 24.504 67.672 24.504ZM67.384 14.04C68.44 14.04 69.32 14.16 70.024 14.4C70.728 14.64 71.288 14.984 71.704 15.432C72.136 15.88 72.44 16.424 72.616 17.064C72.792 17.704 72.88 18.416 72.88 19.2V26.64C72.368 26.752 71.656 26.88 70.744 27.024C69.832 27.184 68.728 27.264 67.432 27.264C66.616 27.264 65.872 27.192 65.2 27.048C64.544 26.904 63.976 26.672 63.496 26.352C63.016 26.016 62.648 25.584 62.392 25.056C62.136 24.528 62.008 23.88 62.008 23.112C62.008 22.376 62.152 21.752 62.44 21.24C62.744 20.728 63.144 20.32 63.64 20.016C64.136 19.712 64.704 19.496 65.344 19.368C65.984 19.224 66.648 19.152 67.336 19.152C67.8 19.152 68.208 19.176 68.56 19.224C68.928 19.256 69.224 19.304 69.448 19.368V19.032C69.448 18.424 69.264 17.936 68.896 17.568C68.528 17.2 67.888 17.016 66.976 17.016C66.368 17.016 65.768 17.064 65.176 17.16C64.584 17.24 64.072 17.36 63.64 17.52L63.184 14.64C63.392 14.576 63.648 14.512 63.952 14.448C64.272 14.368 64.616 14.304 64.984 14.256C65.352 14.192 65.736 14.144 66.136 14.112C66.552 14.064 66.968 14.04 67.384 14.04ZM84.2016 20.784C84.2016 19.68 83.9536 18.8 83.4576 18.144C82.9616 17.472 82.2256 17.136 81.2496 17.136C80.9296 17.136 80.6336 17.152 80.3616 17.184C80.0896 17.2 79.8656 17.224 79.6896 17.256V23.712C79.9136 23.856 80.2016 23.976 80.5536 24.072C80.9216 24.168 81.2896 24.216 81.6576 24.216C83.3536 24.216 84.2016 23.072 84.2016 20.784ZM87.8496 20.688C87.8496 21.664 87.7296 22.552 87.4896 23.352C87.2496 24.152 86.8976 24.84 86.4336 25.416C85.9696 25.992 85.3936 26.44 84.7056 26.76C84.0176 27.08 83.2256 27.24 82.3296 27.24C81.8336 27.24 81.3696 27.192 80.9376 27.096C80.5056 27 80.0896 26.864 79.6896 26.688V31.44H76.1136V14.808C76.4336 14.712 76.8016 14.624 77.2176 14.544C77.6336 14.448 78.0656 14.368 78.5136 14.304C78.9776 14.24 79.4416 14.192 79.9056 14.16C80.3856 14.112 80.8416 14.088 81.2736 14.088C82.3136 14.088 83.2416 14.248 84.0576 14.568C84.8736 14.872 85.5616 15.312 86.1216 15.888C86.6816 16.448 87.1056 17.136 87.3936 17.952C87.6976 18.768 87.8496 19.68 87.8496 20.688ZM95.638 27.24C94.598 27.224 93.75 27.112 93.094 26.904C92.454 26.696 91.942 26.408 91.558 26.04C91.19 25.656 90.934 25.2 90.79 24.672C90.662 24.128 90.598 23.52 90.598 22.848V8.952L94.174 8.376V22.128C94.174 22.448 94.198 22.736 94.246 22.992C94.294 23.248 94.382 23.464 94.51 23.64C94.654 23.816 94.854 23.96 95.11 24.072C95.366 24.184 95.71 24.256 96.142 24.288L95.638 27.24ZM97.5917 20.784C97.5917 19.664 97.7597 18.688 98.0957 17.856C98.4477 17.008 98.9037 16.304 99.4637 15.744C100.024 15.184 100.664 14.76 101.384 14.472C102.12 14.184 102.872 14.04 103.64 14.04C105.432 14.04 106.848 14.592 107.888 15.696C108.928 16.784 109.448 18.392 109.448 20.52C109.448 20.728 109.44 20.96 109.424 21.216C109.408 21.456 109.392 21.672 109.376 21.864H101.264C101.344 22.6 101.688 23.184 102.296 23.616C102.904 24.048 103.72 24.264 104.744 24.264C105.4 24.264 106.04 24.208 106.664 24.096C107.304 23.968 107.824 23.816 108.224 23.64L108.704 26.544C108.512 26.64 108.256 26.736 107.936 26.832C107.616 26.928 107.256 27.008 106.856 27.072C106.472 27.152 106.056 27.216 105.608 27.264C105.16 27.312 104.712 27.336 104.264 27.336C103.128 27.336 102.136 27.168 101.288 26.832C100.456 26.496 99.7597 26.04 99.1997 25.464C98.6557 24.872 98.2477 24.176 97.9757 23.376C97.7197 22.576 97.5917 21.712 97.5917 20.784ZM105.992 19.416C105.976 19.112 105.92 18.816 105.824 18.528C105.744 18.24 105.608 17.984 105.416 17.76C105.24 17.536 105.008 17.352 104.72 17.208C104.448 17.064 104.104 16.992 103.688 16.992C103.288 16.992 102.944 17.064 102.656 17.208C102.368 17.336 102.128 17.512 101.936 17.736C101.744 17.96 101.592 18.224 101.48 18.528C101.384 18.816 101.312 19.112 101.264 19.416H105.992ZM115.711 25.104C115.711 25.824 115.479 26.376 115.015 26.76C114.567 27.128 114.055 27.312 113.479 27.312C112.903 27.312 112.383 27.128 111.919 26.76C111.471 26.376 111.247 25.824 111.247 25.104C111.247 24.384 111.471 23.84 111.919 23.472C112.383 23.088 112.903 22.896 113.479 22.896C114.055 22.896 114.567 23.088 115.015 23.472C115.479 23.84 115.711 24.384 115.711 25.104ZM116.787 20.688C116.787 19.776 116.931 18.92 117.219 18.12C117.523 17.304 117.955 16.6 118.515 16.008C119.075 15.4 119.755 14.92 120.555 14.568C121.355 14.216 122.267 14.04 123.291 14.04C123.963 14.04 124.579 14.104 125.139 14.232C125.699 14.344 126.243 14.512 126.771 14.736L126.027 17.592C125.691 17.464 125.323 17.352 124.923 17.256C124.523 17.16 124.075 17.112 123.579 17.112C122.523 17.112 121.731 17.44 121.203 18.096C120.691 18.752 120.435 19.616 120.435 20.688C120.435 21.824 120.675 22.704 121.155 23.328C121.651 23.952 122.507 24.264 123.723 24.264C124.155 24.264 124.619 24.224 125.115 24.144C125.611 24.064 126.067 23.936 126.483 23.76L126.987 26.688C126.571 26.864 126.051 27.016 125.427 27.144C124.803 27.272 124.115 27.336 123.363 27.336C122.211 27.336 121.219 27.168 120.387 26.832C119.555 26.48 118.867 26.008 118.323 25.416C117.795 24.824 117.403 24.128 117.147 23.328C116.907 22.512 116.787 21.632 116.787 20.688ZM140.586 20.664C140.586 21.656 140.442 22.568 140.154 23.4C139.866 24.216 139.45 24.92 138.906 25.512C138.362 26.088 137.706 26.536 136.938 26.856C136.186 27.176 135.338 27.336 134.394 27.336C133.466 27.336 132.618 27.176 131.85 26.856C131.098 26.536 130.45 26.088 129.906 25.512C129.362 24.92 128.938 24.216 128.634 23.4C128.33 22.568 128.178 21.656 128.178 20.664C128.178 19.672 128.33 18.768 128.634 17.952C128.954 17.136 129.386 16.44 129.93 15.864C130.49 15.288 131.146 14.84 131.898 14.52C132.666 14.2 133.498 14.04 134.394 14.04C135.306 14.04 136.138 14.2 136.89 14.52C137.658 14.84 138.314 15.288 138.858 15.864C139.402 16.44 139.826 17.136 140.13 17.952C140.434 18.768 140.586 19.672 140.586 20.664ZM136.938 20.664C136.938 19.56 136.714 18.696 136.266 18.072C135.834 17.432 135.21 17.112 134.394 17.112C133.578 17.112 132.946 17.432 132.498 18.072C132.05 18.696 131.826 19.56 131.826 20.664C131.826 21.768 132.05 22.648 132.498 23.304C132.946 23.944 133.578 24.264 134.394 24.264C135.21 24.264 135.834 23.944 136.266 23.304C136.714 22.648 136.938 21.768 136.938 20.664ZM150.292 20.304C150.292 19.152 150.14 18.336 149.836 17.856C149.548 17.376 149.044 17.136 148.324 17.136C148.1 17.136 147.868 17.152 147.628 17.184C147.388 17.2 147.156 17.224 146.932 17.256V27H143.356V14.808C143.66 14.728 144.012 14.648 144.412 14.568C144.828 14.472 145.26 14.392 145.708 14.328C146.172 14.248 146.644 14.192 147.124 14.16C147.604 14.112 148.076 14.088 148.54 14.088C149.452 14.088 150.188 14.208 150.748 14.448C151.324 14.672 151.796 14.944 152.164 15.264C152.676 14.896 153.26 14.608 153.916 14.4C154.588 14.192 155.204 14.088 155.764 14.088C156.772 14.088 157.596 14.232 158.236 14.52C158.892 14.792 159.412 15.184 159.796 15.696C160.18 16.208 160.444 16.816 160.588 17.52C160.732 18.224 160.804 19.008 160.804 19.872V27H157.228V20.304C157.228 19.152 157.076 18.336 156.772 17.856C156.484 17.376 155.98 17.136 155.26 17.136C155.068 17.136 154.796 17.184 154.444 17.28C154.108 17.376 153.828 17.496 153.604 17.64C153.716 18.008 153.788 18.4 153.82 18.816C153.852 19.216 153.868 19.648 153.868 20.112V27H150.292V20.304Z" fill="#282828"/>
<defs>
<clipPath id="clip0_2198_1838">
<rect width="19.2" height="19.2" fill="white" transform="translate(6.3999 8.39999)"/>
</clipPath>
</defs>
</svg>
