<svg width="64" height="64" viewBox="0 0 64 64" fill="none" xmlns="http://www.w3.org/2000/svg">
<g clip-path="url(#clip0_2198_1744)">
<path d="M30.5708 64L31.2855 50.2948C31.2959 50.0694 31.2556 49.8445 31.1676 49.6368C31.0796 49.429 30.9461 49.2437 30.7769 49.0943C30.6078 48.945 30.4073 48.8355 30.1902 48.7739C29.9732 48.7123 29.7451 48.7002 29.5227 48.7385L15.881 51.1365L17.7232 46.0546C17.7979 45.8524 17.8075 45.6318 17.7505 45.4239C17.6936 45.216 17.573 45.0312 17.4056 44.8953L2.46167 32.794L5.82842 31.2218C6.0558 31.1144 6.23614 30.9276 6.33556 30.6966C6.43498 30.4656 6.44665 30.2062 6.36837 29.9672L3.41452 20.8834L12.022 22.7097C12.2552 22.7583 12.498 22.7248 12.7093 22.6148C12.9206 22.5048 13.0873 22.3251 13.1813 22.1062L14.8488 18.1836L21.5664 25.3935C21.72 25.5556 21.922 25.6634 22.142 25.7009C22.3621 25.7384 22.5884 25.7036 22.787 25.6016C22.9856 25.4996 23.1458 25.336 23.2436 25.1353C23.3413 24.9346 23.3713 24.7076 23.3292 24.4883L20.0895 7.78164L25.2825 10.7831C25.4044 10.8546 25.5397 10.9002 25.68 10.9173C25.8203 10.9343 25.9626 10.9224 26.0981 10.8822C26.2336 10.842 26.3594 10.7744 26.4677 10.6836C26.576 10.5928 26.6645 10.4807 26.7277 10.3543L32.0001 0L37.2726 10.3543C37.3358 10.4807 37.4243 10.5928 37.5326 10.6836C37.6409 10.7744 37.7667 10.842 37.9022 10.8822C38.0377 10.9224 38.1799 10.9343 38.3202 10.9173C38.4605 10.9002 38.5958 10.8546 38.7177 10.7831L43.9108 7.78164L40.6711 24.4883C40.6289 24.7076 40.659 24.9346 40.7567 25.1353C40.8545 25.336 41.0146 25.4996 41.2132 25.6016C41.4118 25.7036 41.6381 25.7384 41.8582 25.7009C42.0783 25.6634 42.2803 25.5556 42.4339 25.3935L49.1515 18.1836L50.819 22.1062C50.9129 22.3251 51.0797 22.5048 51.291 22.6148C51.5023 22.7248 51.7451 22.7583 51.9783 22.7097L60.5857 20.8834L57.6319 29.9672C57.5536 30.2062 57.5653 30.4656 57.6647 30.6966C57.7641 30.9276 57.9445 31.1144 58.1718 31.2218L61.5386 32.794L46.5947 44.8953C46.4273 45.0312 46.3067 45.216 46.2497 45.4239C46.1927 45.6318 46.2023 45.8524 46.2771 46.0546L48.1192 51.1365L34.4775 48.7385C34.2552 48.7002 34.0271 48.7123 33.81 48.7739C33.593 48.8355 33.3925 48.945 33.2233 49.0943C33.0542 49.2437 32.9207 49.429 32.8327 49.6368C32.7447 49.8445 32.7044 50.0694 32.7148 50.2948L33.4294 64H30.5708Z" fill="#CC0000"/>
</g>
<defs>
<clipPath id="clip0_2198_1744">
<rect width="64" height="64" fill="white"/>
</clipPath>
</defs>
</svg>
